<svg width="453" height="50" viewBox="0 0 453 50" xmlns="http://www.w3.org/2000/svg" xmlns:xlink="http://www.w3.org/1999/xlink"><defs><path id="a" d="M0 0h50v50H0z"/><path d="M42.979 29.68s.106.107.106.213c.318.958-.426 2.34-1.383 2.447-.745.107-1.596.107-2.447.107 0-.532.107-.959.107-1.383 0-1.383-1.064-2.447-2.447-2.554-2.128-.106-4.363 1.277-5.214 3.405-.213.425-.318.532-.745.532h-7.658c0-.427.106-.746.106-1.17 0-1.49-.957-2.66-2.553-2.66-2.021-.107-4.255 1.276-5.213 3.403-.212.427-.319.532-.744.427h-2.447c-1.17 0-1.702-.851-1.17-2.128 0-.106.211-.214.319-.214h1.488c.852 0 1.278-.318 1.278-.956 0-.64-.426-.958-1.278-.958H4.362c-.426 0-.852.106-.852-.531 0-.532.32-.959.745-.959h7.66c.425 0 .637-.105.745-.532.106-.424.319-.85.424-1.275.107-.426.32-.532.852-.532H23.19c.532-.108.853-.532.853-.958 0-.532-.32-.957-.853-.957H8.085c-.32 0-.745.106-.745-.426-.107-.426.107-.85.532-1.064.213-.106.425-.106.745-.106h5.53c.427 0 .533-.106.64-.532.107-.532.32-.957.532-1.49.107-.318.213-.426.638-.426h11.276c.64 0 1.171-.424 1.171-.956 0-.64-.426-.958-1.171-.958H12.128c-.426 0-.851.213-.958-.532 0-.531.318-.957.958-1.063h20.424c1.596 0 2.022.638 1.596 2.127-.532.85-.851 1.809-1.17 2.766.638 0 1.277.107 1.915 0 1.277-.106 2.235.32 2.873 1.49.532.957 1.17 1.702 1.808 2.553.32.424.745.744 1.17.85.532.214 1.063.32 1.595.533.64.213.959.532.851 1.276-.105.744-.211 1.489-.424 2.128-.107.424-.213.851.213 1.064m-5 2.552c-.427 1.49-1.809 2.66-3.3 2.873-1.488.213-2.446-.85-2.127-2.341.32-1.596 2.022-2.978 3.618-3.084 1.382 0 2.233 1.17 1.809 2.552m-15.958-.105c-.319 1.595-1.808 2.872-3.404 2.978-1.383.106-2.341-.958-2.021-2.341.319-1.596 2.021-2.978 3.51-2.978 1.383-.106 2.234.958 1.915 2.34M25 0C11.17 0 0 11.17 0 25s11.17 25 25 25 25-11.17 25-25S38.83 0 25 0" id="c"/><filter x="-3%" y="-3%" width="106%" height="106%" filterUnits="objectBoundingBox" id="d"><feGaussianBlur stdDeviation="1" in="SourceAlpha" result="shadowBlurInner1"/><feOffset dy="1" in="shadowBlurInner1" result="shadowOffsetInner1"/><feComposite in="shadowOffsetInner1" in2="SourceAlpha" operator="arithmetic" k2="-1" k3="1" result="shadowInnerInner1"/><feColorMatrix values="0 0 0 0 0 0 0 0 0 0 0 0 0 0 0 0 0 0 0.2 0" in="shadowInnerInner1"/></filter><path id="e" d="M0 0h50v50H0z"/><path d="M41.063 36.915c0 .745-.532 1.488-1.063 1.488H34.36c-.532 0-1.064-.637-1.064-1.488v-5.532c0-.85.427-1.49 1.064-1.49H40c.531 0 1.063.64 1.063 1.49v5.532zM30.425 32.66c0 3.51-2.34 5.425-2.447 5.425.108.107-.105.107-.212.107h-6.703c-.105 0-.212-.107-.319-.107-.106-.106-2.445-1.915-2.445-5.425V21.596c0-.32.211-.532.531-.532h11.063c.32 0 .532.213.532.532V32.66zm-12.979 4.787c-.211.532-.532.851-1.063 1.064-.958.319-2.128-.108-2.447-1.171v-.106L6.808 18.936v-.212l.426-2.98v-.105c0-.107.106-.213.212-.213h.426l2.34 1.915c0 .106.108.106.108.212l7.126 18.298v.107c.213.532.213 1.063 0 1.489zm3.192-19.787c0-.32.213-.532.532-.532h6.703c.318 0 .532.213.532.532v2.234h-7.767V17.66zm.532-5.639c0-.106.106-.319.213-.425.107 0 .212-.106.425-.106.106 0 2.766.425 4.575 1.17.212.106.319.319.319.532v1.702c.32 0 .532.213.532.532v.532h-5.532v-.532c0-.32.212-.532.532-.532v-.426l-.958-1.595c0-.107-.106-.213-.106-.32v-.532zm13.086 8.83c0-.532.318-.957.745-.957h4.255c.424 0 .744.425.744.957h-.107v7.978h-5.637V20.85zm.745-4.042v-.213c.105-.106 1.063-2.766 3.828-3.298.107 0 .214 0 .32.106.107.107.107.32.107.426v5h-4.255v-2.021zM25 0C11.17 0 0 11.17 0 25s11.17 25 25 25 25-11.17 25-25S38.83 0 25 0z" id="g"/><filter x="-3%" y="-3%" width="106%" height="106%" filterUnits="objectBoundingBox" id="h"><feGaussianBlur stdDeviation="1" in="SourceAlpha" result="shadowBlurInner1"/><feOffset dy="1" in="shadowBlurInner1" result="shadowOffsetInner1"/><feComposite in="shadowOffsetInner1" in2="SourceAlpha" operator="arithmetic" k2="-1" k3="1" result="shadowInnerInner1"/><feColorMatrix values="0 0 0 0 0 0 0 0 0 0 0 0 0 0 0 0 0 0 0.2 0" in="shadowInnerInner1"/></filter><path d="M36.808 23.51v.214c0 .85 0 1.595-.532 2.127l-12.658 12.66c-.32.213-.746.425-1.172.425-.424 0-.85-.106-1.17-.425l-9.68-9.681c-.212-.32-.426-.745-.426-1.17 0-.426.106-.851.425-1.17l12.766-12.66c.532-.532 1.17-.532 1.916-.532h8.616c1.064 0 1.915.851 1.915 1.915v8.298zM25 0C11.17 0 0 11.17 0 25s11.17 25 25 25 25-11.17 25-25S38.83 0 25 0z" id="i"/><filter x="-3%" y="-3%" width="106%" height="106%" filterUnits="objectBoundingBox" id="j"><feGaussianBlur stdDeviation="1" in="SourceAlpha" result="shadowBlurInner1"/><feOffset dy="1" in="shadowBlurInner1" result="shadowOffsetInner1"/><feComposite in="shadowOffsetInner1" in2="SourceAlpha" operator="arithmetic" k2="-1" k3="1" result="shadowInnerInner1"/><feColorMatrix values="0 0 0 0 0 0 0 0 0 0 0 0 0 0 0 0 0 0 0.2 0" in="shadowInnerInner1"/></filter></defs><g fill="none" fill-rule="evenodd"><path d="M349.714 0l1.572 4.615v3.077h1.047V4.615L353.905 0h-1.048l-1.047 3.077L350.762 0h-1.048zm5.762 2.051c-.558 0-.833.086-1.174.36-.328.271-.418.48-.397 1.179v2.564c0 .51.086.847.4 1.146.328.298.637.392 1.171.392.559 0 .864-.094 1.179-.392.327-.287.393-.635.393-1.146V3.59c0-.453-.082-.882-.4-1.168-.327-.295-.664-.37-1.172-.37zm2.62 0v4.616c0 .498.513 1.025 1.047 1.025.534 0 .816-.262 1.047-.513v.513h1.048v-5.64h-1.048v4.102c-.006.35-.427.513-.523.513-.109 0-.524-.022-.524-.513V2.05h-1.048zm-2.62 1.026c.158 0 .524-.002.524.513v2.564c0 .497-.354.513-.524.513-.157 0-.524-.006-.524-.513V3.59c0-.419.228-.513.524-.513zm-7.333 5.64c-1.883 0-3.143 1.223-3.143 3.078v4.872c0 1.855 1.26 3.333 3.143 3.333h15.714c1.883 0 3.143-1.222 3.143-3.077v-5.128c0-1.855-1.26-3.077-3.143-3.077h-15.714zm1.047 2.052h3.143v1.026h-1.047v6.154h-1.048v-6.154h-1.048v-1.026zm7.334 0h1.047v2.052c.121-.185.301-.331.473-.413.168-.084.338-.132.51-.132.34 0 .605.12.787.344.182.227.326.527.326.97v3.077c0 .38-.131.617-.303.819-.168.202-.42.459-.745.463-.55.006-.845-.283-1.048-.513v.513h-1.047v-7.18zm-4.19 1.539h1.047v4.102c0 .118.141.517.524.513.425-.004.43-.393.524-.513v-4.102h1.047v5.64h-1.047v-.512c-.195.224-.295.294-.514.4-.217.12-.438.113-.642.113-.254 0-.543-.225-.678-.393-.12-.154-.262-.312-.262-.633v-4.615zm9.532 0c.497 0 .847.104 1.111.376.27.273.356.591.356 1.104v1.597h-2.095v.793c0 .286.039.469.115.577.071.118.217.17.409.168.213-.002.348-.044.42-.138.073-.084.104-.323.104-.631v-.257h1.047v.305c0 .559-.045.975-.327 1.248-.266.286-.681.419-1.226.419-.497 0-.886-.145-1.164-.441-.278-.297-.423-.703-.423-1.226v-2.414c0-.465.165-.81.47-1.116.246-.246.706-.364 1.203-.364zm-3.77.769a.539.539 0 0 0-.525.513v3.077c.005.148.236.256.524.256a.51.51 0 0 0 .524-.5v-2.577c0-.513-.235-.77-.524-.77zm3.666.256a.527.527 0 0 0-.524.513v.513h1.048v-.513c0-.314-.236-.513-.524-.513z" fill="#3F414D"/><path d="M281.619 0h-15.238A2.382 2.382 0 0 0 264 2.381v15.238A2.382 2.382 0 0 0 266.381 20h15.238A2.382 2.382 0 0 0 284 17.619V2.381A2.382 2.382 0 0 0 281.619 0zm-1.905 7.143h-.952c-1.02 0-1.429.238-1.429.952v1.429h2.381l-.476 2.38h-1.905v7.144h-2.38v-7.143h-1.905V9.524h1.904V8.095c0-1.905.953-3.333 2.858-3.333 1.38 0 1.904.476 1.904.476v1.905zM229.91 0C226.65 0 224 2.65 224 5.91v8.18c0 3.26 2.65 5.91 5.91 5.91h8.18c3.26 0 5.91-2.65 5.91-5.91V5.91c0-3.26-2.65-5.91-5.91-5.91h-8.18zm9.545 3.636c.5 0 .909.41.909.91s-.41.909-.91.909-.909-.41-.909-.91.41-.909.91-.909zM234 5c2.76 0 5 2.24 5 5s-2.24 5-5 5-5-2.24-5-5 2.24-5 5-5zm0 .91a4.097 4.097 0 0 0-4.09 4.09 4.097 4.097 0 0 0 4.09 4.09 4.097 4.097 0 0 0 4.09-4.09A4.097 4.097 0 0 0 234 5.91zM324.437 14.655c-2.65-.442-3.86-3.219-3.9-3.309a.885.885 0 0 0-.024-.061c-.08-.163-.16-.392-.093-.554.116-.278.667-.455.997-.561.116-.038.226-.073.312-.107.8-.321 1.2-.74 1.19-1.248-.006-.41-.316-.785-.773-.948a1.333 1.333 0 0 0-.524-.103c-.125 0-.314.018-.496.103-.305.145-.572.222-.763.231a.823.823 0 0 1-.107-.01l.02-.318c.089-1.437.201-3.227-.279-4.315C318.582.25 315.582 0 314.697 0l-.404.004c-.884 0-3.878.249-5.29 3.453-.48 1.088-.37 2.876-.279 4.315l.004.054.016.261c-.198.036-.585-.03-.986-.22-.546-.258-1.528.083-1.664.805-.06.32.013.926 1.175 1.39.088.035.197.07.314.108.328.106.88.281.995.56.068.163-.012.392-.107.589-.05.117-1.253 2.894-3.908 3.336a.677.677 0 0 0-.562.71.844.844 0 0 0 .066.274c.24.572 1.116.965 2.75 1.234.028.097.06.242.078.321.034.164.071.33.121.504.048.164.214.545.731.545.157 0 .328-.035.512-.07.271-.055.61-.122 1.045-.122.242 0 .492.022.744.063.463.078.882.38 1.369.726.76.545 1.62 1.16 2.956 1.16.036 0 .072-.002.106-.004.048.002.098.004.148.004 1.335 0 2.196-.617 2.958-1.16.463-.334.902-.646 1.367-.726a4.58 4.58 0 0 1 .744-.063c.42 0 .75.054 1.047.114.21.041.378.061.533.061.346 0 .612-.2.708-.536.05-.17.085-.333.121-.5.014-.06.048-.216.079-.319 1.633-.269 2.508-.662 2.747-1.229.04-.09.06-.184.068-.281a.678.678 0 0 0-.562-.706zM413 2.367c-.922.403-1.91.673-2.948.796A5.077 5.077 0 0 0 412.308.37c-.99.578-2.09.998-3.257 1.224A5.155 5.155 0 0 0 405.308 0c-2.833 0-5.13 2.26-5.13 5.048 0 .396.046.781.134 1.151A14.641 14.641 0 0 1 389.74.923a4.97 4.97 0 0 0-.694 2.54 5.03 5.03 0 0 0 2.282 4.204 5.186 5.186 0 0 1-2.325-.633v.063c0 2.447 1.77 4.486 4.114 4.952a5.208 5.208 0 0 1-2.317.085c.655 2.004 2.548 3.468 4.791 3.508a10.385 10.385 0 0 1-6.37 2.16c-.414 0-.822-.023-1.221-.071A14.658 14.658 0 0 0 395.862 20c9.434 0 14.593-7.693 14.593-14.365 0-.218-.005-.439-.013-.654A10.338 10.338 0 0 0 413 2.367zM443 0c-5.514 0-10 4.486-10 10s4.486 10 10 10 10-4.486 10-10-4.486-10-10-10zm1.105 13.356c-1.433 0-1.963-.93-1.963-.93s-.256 1.004-.444 1.718c-.188.713-.22.724-.403 1.126-.205.452-.707 1.163-.855 1.382-.118.174-.264.32-.35.302-.085-.016-.085-.106-.106-.294-.029-.26-.112-1.128-.072-1.716.026-.383.16-1.031.16-1.031l.967-3.96c-.595-1.22-.107-3.127 1.248-3.127.961 0 1.213.87.919 1.916-.131.466-.542 1.775-.555 1.836-.012.062-.043.192-.036.321 0 .382.292 1.162 1.302 1.162 1.628 0 2.4-2.407 2.4-4.016 0-1.295-.824-2.858-3.225-2.858-2.447 0-3.797 1.862-3.797 3.571 0 .959.378 1.344.554 1.555.142.172.07.337.07.337l-.154.62c-.057.204-.24.31-.497.16-.258-.148-1.485-.668-1.485-2.887 0-2.273 2.141-4.63 5.465-4.63 2.639 0 4.97 1.66 4.97 4.348 0 3.32-2.074 5.095-4.113 5.095z" fill="#3F414D" fill-rule="nonzero"/><g transform="translate(71)"><mask id="b" fill="#fff"><use xlink:href="#a"/></mask><g mask="url(#b)"><use fill="#FC2779" xlink:href="#c"/><use fill="#000" filter="url(#d)" xlink:href="#c"/></g></g><path d="M106.645 20.833h-2.15c-.323 0-.43.105-.538.313l-.645 1.875c-.215.625-.43 1.25-.645 1.979H107.72c.753 0 1.184-.208 1.613-.833-.752-1.042-1.504-2.084-2.258-3.125-.107-.105-.321-.209-.43-.209" fill="#FC2779"/><g transform="translate(145)"><mask id="f" fill="#fff"><use xlink:href="#e"/></mask><g mask="url(#f)"><use fill="#FC2779" xlink:href="#g"/><use fill="#000" filter="url(#h)" xlink:href="#g"/></g></g><g><path d="M31.702 16.49c-.956 0-1.702.744-1.702 1.701 0 .958.746 1.703 1.702 1.703.957 0 1.703-.745 1.703-1.703 0-.957-.746-1.702-1.703-1.702" fill="#FC2779"/><use fill="#FC2779" xlink:href="#i"/><use fill="#000" filter="url(#j)" xlink:href="#i"/></g></g></svg>