<svg xmlns="http://www.w3.org/2000/svg" width="20" height="20"><path fill="#FFF" d="M11.6.325c-2.88 0-5.831.878-8.012 3.662C1.406 6.772 0 11.39 0 18.8a.399.399 0 00.463.4s2.321-.4 6.737-.4h.025C8.003 19.523 8.917 20 10 20c1.084 0 2.073-.469 2.925-1.2h.012c.02.002.043.002.063 0 4.336 0 6.525.4 6.525.4a.4.4 0 00.475-.4c0-1.983-.175-3.38-.35-4.288-.127-.654-.236-.984-.3-1.162.156-.284.25-.605.25-.95v-1.2c0-.645-.32-1.22-.8-1.587-.022-2.213-.683-4.194-1.85-5.638-1.123-1.39-2.742-2.247-4.637-2.337L11.988.6A.4.4 0 0011.6.325zm-.287.825l.3.975A.4.4 0 0012 2.4c1.803 0 3.272.773 4.325 2.075.97 1.2 1.573 2.864 1.663 4.763A1.987 1.987 0 0017.6 9.2h-.838a.398.398 0 00-.362.4v.725a1.755 1.755 0 00-.562-.162c-.48-.6-2.479-3.122-3.438-5.563-.08-.16-.2-.278-.4-.237a.384.384 0 00-.363.274c-.4 1.441-3.721 5.646-7.162 5.726-.2-.041-.672-.12-1.112.2-.4.32-.563.762-.563 1.362 0 .92.595 1.675 1.475 1.875.533 1.392 1.248 2.99 2.212 4.212-3.359.032-5.13.26-5.662.338.06-7.016 1.414-11.345 3.388-13.863 1.946-2.484 4.482-3.28 7.1-3.337zM12 5.763c1.2 2.559 3.195 4.917 3.275 5.037.08.08.205.162.325.162 0 0 .57.008.8.488v.95c0 .52-1 .637-1 .637-.16 0-.322.166-.363.325-.2.92-.521 1.797-.962 2.638h.888c.32-.72.603-1.48.762-2.2.244-.052.467-.14.675-.25V14c0 .22.18.4.4.4h.4c0 1.102-.898 2-2 2h-3.275a1.204 1.204 0 00-1.125-.8H10c-.658 0-1.2.542-1.2 1.2 0 .658.542 1.2 1.2 1.2h.8c.517 0 .958-.337 1.125-.8H15.2a2.81 2.81 0 002.8-2.8v-.037c.269-.057.519-.161.738-.313.042.166.076.362.125.612.15.774.298 2.02.325 3.675-.522-.08-2.207-.295-5.475-.325.114-.134.218-.268.325-.412H13c-.84.96-1.88 1.6-3 1.6-1.92 0-3.555-1.925-5.075-5.925-.04-.16-.205-.238-.325-.238-.56-.04-1-.512-1-1.112 0-.24.04-.567.2-.688.16-.12.475-.075.475-.075H4.4c3.32 0 6.48-3.28 7.6-5.4zM17.2 10h.4a1.2 1.2 0 011.2 1.2v1.2c0 .24-.067.463-.188.65a.426.426 0 00-.062.087c-.22.283-.566.463-.95.463h-.4v-2.088a.424.424 0 000-.274V10zM10 16.4h.8c.222 0 .4.178.4.4 0 .222-.178.4-.4.4H10a.399.399 0 01-.4-.4c0-.222.178-.4.4-.4z"/></svg>